<?xml version="1.0" encoding="UTF-8"?>
<svg viewBox="0 0 500 500" xmlns="http://www.w3.org/2000/svg" xmlnsBx="https://boxy-svg.com">
<rect x="169.31" y="165.19" width="146.94" height="125.55" fill="#60a561" stroke="#000"/>
<path d="m228.22 165.43h29.258v50.028h58.516v25.014h-58.516v50.027h-29.258v-50.027h-58.515v-25.014h58.515z" fill="#f9a620" stroke="#000" bxShape="cross 169.702 165.427 146.289 125.069 25.014 29.258 0.5 1@497251c0"/>
<path d="m248.12 177.24c8.148 1.399 23.764 14.687 26.129 23.546 2.04-0.14 14.303-6.699 14.303-8.698 0 2.26-0.514-3.175-0.639-3.91-0.56-3.31-0.767-5.3-3-8.064-5.912-7.318-15.184-16.74-24.974-17.12" fill="#f9a620" stroke="#000"/>
<path d="m227.46 166.37c-9.427 4.435-21.724 21.679-21.724 32.504-0.855-4.846 16.965-1.093 16.965 5.218 0-10.468 8.716-20.375 15.734-27.176" fill="#f9a620" stroke="#000"/>
<path transform="matrix(.91354 -.40674 .40674 .91354 -53.097 126.08)" d="m289.97 146.11m-34.5 0a34.5 16.489 0 1 0 69 0 34.5 16.489 0 1 0-69 0zm34.5 0m-18 0a18 9.893 0 0 1 36 0 18 9.893 0 0 1-36 0z" fill="#f9a620" stroke="#000" bxShape="ring 289.97 146.112 18 9.893 34.5 16.489 1@9d602b8c"/>
<path transform="matrix(.87462 .48481 -.48481 .87462 145.52 -67.56)" d="m162.92 149.94m-32.5 0a32.5 16.489 0 1 0 65 0 32.5 16.489 0 1 0-65 0zm32.5 0m-16 0a16 9.893 0 0 1 32 0 16 9.893 0 0 1-32 0z" fill="#f9a620" stroke="#000" bxShape="ring 162.924 149.943 16 9.893 32.5 16.489 1@597f8e14"/>
<path d="m241.77 153.48c2.498-0.374 3.734-0.677 6.335 0.313 2.72 1.036 5.265 0.729 6.925 3.48 1.877 3.113 3.496 4.461 2.836 8.201-0.618 3.507-2.825 7.249-5.702 9.304-3.081 2.201-8.858 3.571-12.605 3.001-3.498-0.532-7.249-2.825-9.304-5.702-2.201-3.081-1.665-5.67-1.073-9.558 0.579-3.801 3.062-3.766 5.435-5.876 1.837-1.635 4.907-2.827 7.153-3.163z" fill="#f9a620" stroke="#000"/>
</svg>
